<svg version="1.1" xmlns="http://www.w3.org/2000/svg" width="960" height="436">
<path d="M0 0 C316.8 0 633.6 0 960 0 C960 143.88 960 287.76 960 436 C643.2 436 326.4 436 0 436 C0 292.12 0 148.24 0 0 Z " fill="#DEDFE3" transform="translate(0,0)" data-index="0" style="opacity: 1; visibility: visible;"></path>
<path d="M0 0 C0.73428223 0.19480957 1.46856445 0.38961914 2.22509766 0.59033203 C9.24310655 2.40550788 16.20967987 3.80029065 23.375 4.875 C25.58217194 5.21784549 27.78919721 5.56163621 29.99609375 5.90625 C31.71481689 6.17308594 31.71481689 6.17308594 33.46826172 6.4453125 C40.71077995 7.58280741 47.94627801 8.76644046 55.16870117 10.02539062 C61.3617966 11.1000387 67.52809515 12.09084476 73.76747131 12.84344482 C100.10656768 16.05288679 100.10656768 16.05288679 104.88671875 21.578125 C106.22526344 23.55227933 107.33618105 25.55042371 108.43676758 27.66479492 C110.55141123 31.55564213 111.97984713 33.39381773 116.3125 34.72265625 C120.58144523 35.66303597 124.89410197 36.21768938 129.23730469 36.69042969 C134.02132057 37.22649651 138.75515923 38.00763809 143.5 38.8125 C144.38993652 38.93004639 145.27987305 39.04759277 146.19677734 39.16870117 C152.2360438 40.15848608 152.2360438 40.15848608 154.4765625 42.62646484 C155.90537436 45.03758486 157 47.15562233 157 50 C158.68996094 49.96483276 158.68996094 49.96483276 160.4140625 49.92895508 C165.13565323 49.93238346 169.70393946 50.49066074 174.375 51.13671875 C176.24418732 51.38535206 178.11341102 51.63371195 179.98266602 51.88183594 C181.45305832 52.07948547 181.45305832 52.07948547 182.95315552 52.28112793 C191.50394752 53.42158753 200.06439833 54.48992119 208.6227417 55.57196045 C210.88226162 55.85833591 213.14157933 56.14631114 215.4006958 56.43585205 C222.0580837 57.28791272 228.71803465 58.10572792 235.38549805 58.87515259 C237.49630314 59.1242018 239.60575492 59.3850141 241.71362305 59.6578064 C244.6618393 60.03734035 247.61208014 60.37507977 250.56640625 60.703125 C251.87116661 60.88507164 251.87116661 60.88507164 253.20228577 61.07069397 C257.82113695 61.56538921 257.82113695 61.56538921 261.91549683 59.67810059 C263.80167249 57.87231076 263.80167249 57.87231076 266 55 C269.03852705 56.40976705 271.5939595 58.08870228 274.25 60.125 C274.95640625 60.66382813 275.6628125 61.20265625 276.390625 61.7578125 C276.92171875 62.16773438 277.4528125 62.57765625 278 63 C279.87755009 62.08856792 281.75192223 61.1705881 283.625 60.25 C285.19121094 59.48429687 285.19121094 59.48429687 286.7890625 58.703125 C290.03188858 57.0942986 290.03188858 57.0942986 292.77745056 54.88600159 C296.61650994 52.63918669 298.39545952 52.66725944 302.77172852 53.12084961 C303.4184102 53.18234916 304.06509188 53.24384871 304.73136997 53.30721188 C306.8242848 53.5138051 308.91132335 53.75446612 311 54 C312.39657171 54.15205926 313.79320925 54.30351508 315.18991089 54.45437622 C319.68228752 54.95307645 324.1670331 55.50825662 328.65234375 56.06640625 C330.28995952 56.26711809 331.92762016 56.46746411 333.56532288 56.66746521 C337.82185278 57.18825989 342.07776537 57.71393469 346.33355713 58.24072266 C350.69791214 58.78003962 355.06284855 59.31460858 359.42773438 59.84960938 C367.95239018 60.89516399 376.47639805 61.94588874 385 63 C385 65 385 65 383.6015625 66.41015625 C382.94929688 66.95542969 382.29703125 67.50070313 381.625 68.0625 C380.52671875 68.99835938 380.52671875 68.99835938 379.40625 69.953125 C378.6121875 70.62859375 377.818125 71.3040625 377 72 C370.89460392 77.35213293 365.06440167 82.89597843 359.359375 88.671875 C357.33885937 90.66562883 355.28504812 92.53628135 353.125 94.375 C349.00408602 97.89529494 345.24084406 101.73118036 341.43554688 105.58398438 C338.00269093 109.04301203 334.46861087 112.31177162 330.75 115.46484375 C328.94809421 117.04553342 327.28917411 118.71331961 325.625 120.4375 C323 123 323 123 321 123 C320.74992187 123.5878125 320.49984375 124.175625 320.2421875 124.78125 C318.83573115 127.29341102 317.33359008 128.66645352 315.125 130.5 C312.95824118 132.31249787 311.07843078 133.89839228 309.34765625 136.140625 C306.26259484 138.58403471 303.8351916 138.57326148 299.99365234 138.96166992 C291.96425956 139.6505551 291.96425956 139.6505551 285.34814453 143.72607422 C283.56157914 146.51720892 282.2215039 149.4023078 280.88574219 152.42919922 C278.44172017 157.83066193 278.44172017 157.83066193 275.60546875 158.91796875 C273.9166909 158.88943333 272.22807135 158.81807774 270.54296875 158.703125 C265.03362809 159.34630456 261.5315302 165.09672978 258 169 C256.64734855 170.23329985 255.27402809 171.44457005 253.875 172.625 C249.13465316 176.68541831 244.76394445 181.10310632 240.45703125 185.6171875 C239.33851035 186.77834996 238.17404884 187.89501285 237 189 C236.34 189 235.68 189 235 189 C234.67 189.99 234.34 190.98 234 192 C232.2578125 193.71875 232.2578125 193.71875 230.125 195.5 C227.14615469 198.00265321 227.14615469 198.00265321 224.3671875 200.71875 C223 202 223 202 221 202 C221 202.66 221 203.32 221 204 C219.53125 205.4453125 219.53125 205.4453125 217.5 207.125 C213.6500766 210.37893881 210.13935665 213.84772718 206.6640625 217.49609375 C205 219 205 219 203 219 C203 219.66 203 220.32 203 221 C201.671875 222.3046875 201.671875 222.3046875 199.75 223.875 C195.35139081 227.59931259 191.32301517 231.61450594 187.30175781 235.73583984 C185.0670301 238.00843171 183.06526257 239.96065191 180.32421875 241.61328125 C177.55997848 244.45185403 177.74787738 245.38459921 177.265625 249.19921875 C175.80236115 255.96527699 172.17767546 259.43585723 167.296875 264.01953125 C166.53991333 264.73156708 165.78295166 265.44360291 165.00305176 266.17721558 C161.80572391 269.14416593 158.58018638 272.07619482 155.31689453 274.97045898 C152.91827771 277.11578304 150.57655842 279.3129275 148.234375 281.51953125 C147.51433289 282.12875931 146.79429077 282.73798737 146.0524292 283.36567688 C141.15458219 288.04890467 139.46396473 292.43094822 137.88056278 298.85618401 C133.98779613 314.54785494 126.03440068 323.08385177 114.51953125 334.04296875 C112.69715016 335.83541438 110.87833828 337.63149525 109.06291199 339.4309845 C104.80450118 343.63508003 100.51211868 347.80215048 96.20066136 351.95164329 C91.29997881 356.67219933 86.44572951 361.43936674 81.59451449 366.2106632 C73.30580347 374.36129156 64.98421448 382.47698326 56.62374878 390.5539856 C53.39046173 393.67818588 50.16273924 396.80398056 47 400 C45.35 399.34 43.7 398.68 42 398 C42.28484846 396.26969709 42.57819938 394.54079286 42.875 392.8125 C43.03742188 391.84957031 43.19984375 390.88664062 43.3671875 389.89453125 C44 387 44 387 44.92578125 384.734375 C46.49544507 380.7388671 47.35402514 376.61570223 48.3125 372.4375 C48.75429349 370.54796295 49.19702546 368.65864512 49.640625 366.76953125 C49.86556641 365.80998535 50.09050781 364.85043945 50.32226562 363.86181641 C53.14245552 351.95321918 56.18714602 340.09763435 59.3828125 328.28466797 C60.12264234 325.54600988 60.8582068 322.80621873 61.59375 320.06640625 C63.09120183 314.49098288 64.59309162 308.91676966 66.09765625 303.34326172 C66.69460673 301.13150851 67.29097022 298.91959679 67.88671875 296.70751953 C68.71393468 293.63774367 69.54403129 290.56876183 70.375 287.5 C70.62556152 286.56857178 70.87612305 285.63714355 71.13427734 284.67749023 C71.3658252 283.82485596 71.59737305 282.97222168 71.8359375 282.09375 C72.03751465 281.34802734 72.2390918 280.60230469 72.44677734 279.83398438 C73 278 73 278 74 276 C74.845625 276.165 75.69125 276.33 76.5625 276.5 C81.30733924 275.80984156 82.64771088 273.4299967 85.484375 269.75 C86.23460937 268.88375 86.23460937 268.88375 87 268 C87.66 268 88.32 268 89 268 C89.28875 267.4225 89.5775 266.845 89.875 266.25 C91.4375 263.125 91.4375 263.125 93 260 C92.01 259.34 91.02 258.68 90 258 C89.8125 254.375 89.8125 254.375 90 251 C91.00546875 251.26683594 92.0109375 251.53367187 93.046875 251.80859375 C98.33182268 252.06448549 100.29131663 250.29905792 104.25 247.0625 C105.55833482 246.04654147 106.86693105 245.03091949 108.17578125 244.015625 C108.81725098 243.50708984 109.4587207 242.99855469 110.11962891 242.47460938 C112.83856458 240.34238768 115.63245972 238.33009689 118.4375 236.3125 C119.76587891 235.34763672 119.76587891 235.34763672 121.12109375 234.36328125 C122.05115234 233.68845703 122.05115234 233.68845703 123 233 C122.855625 232.4225 122.71125 231.845 122.5625 231.25 C122.376875 230.5075 122.19125 229.765 122 229 C121.8246875 228.39542969 121.649375 227.79085937 121.46875 227.16796875 C120.59098668 223.10831341 120.53895851 218.93792325 120.28125 214.80078125 C120.30818487 212.0972125 120.30818487 212.0972125 119 211 C118.74516469 208.84259832 118.5537242 206.67769018 118.38671875 204.51171875 C118.27430623 203.10789923 118.16175046 201.70409118 118.04907227 200.30029297 C117.99051056 199.55084412 117.93194885 198.80139526 117.87161255 198.02923584 C116.83017723 184.78317295 115.57885223 171.57484897 114.0625 158.375 C112.49221979 144.67861388 111.07505049 130.9723383 109.75 117.25 C109.66114532 116.32999207 109.57229065 115.40998413 109.48074341 114.46209717 C108.98379678 109.30838341 108.49036433 104.15434403 108 99 C107.3002002 99.15702393 106.60040039 99.31404785 105.87939453 99.47583008 C100.59592106 100.43764266 95.23206928 100.46890359 89.875 100.6875 C88.68261719 100.74744141 87.49023438 100.80738281 86.26171875 100.86914062 C85.12089844 100.91619141 83.98007812 100.96324219 82.8046875 101.01171875 C81.24210205 101.08072388 81.24210205 101.08072388 79.64794922 101.15112305 C77 101 77 101 74 99 C73.3125 96.875 73.3125 96.875 73 95 C71.98679687 94.76925781 70.97359375 94.53851563 69.9296875 94.30078125 C68.57791305 93.97222496 67.22636201 93.64274858 65.875 93.3125 C65.20984375 93.16361328 64.5446875 93.01472656 63.859375 92.86132812 C56.16759161 90.93838228 52.52207254 87.09815803 48.4140625 80.5 C47.1400732 78.33976452 45.87751111 76.17275907 44.625 74 C43.28558522 71.72110199 41.94574662 69.44245301 40.60546875 67.1640625 C39.97431152 66.08286133 39.3431543 65.00166016 38.69287109 63.88769531 C36.8170304 60.68789091 34.89485335 57.52544726 32.9375 54.375 C28.70895823 47.54498579 24.5388992 40.67972146 20.36547852 33.81591797 C17.51409177 29.12741416 14.66010125 24.44061403 11.79296875 19.76171875 C11.29837158 18.95436279 10.80377441 18.14700684 10.29418945 17.31518555 C9.38085289 15.82521984 8.46669345 14.33575808 7.55151367 12.84692383 C4.95341459 8.60765231 2.44622772 4.32880849 0 0 Z " fill="#968E83" transform="translate(321,24)" data-index="1" style="opacity: 1;"></path>
<path d="M0 0 C2.70860124 0.14176421 5.41680752 0.28828216 8.125 0.4375 C9.26582031 0.49647461 9.26582031 0.49647461 10.4296875 0.55664062 C14.68509203 0.79509002 18.80370826 1.20230237 23 2 C23.33 3.32 23.66 4.64 24 6 C57.66 8.97 57.66 8.97 92 12 C92.66 10.02 93.32 8.04 94 6 C102.04736706 6.32189468 108.80022076 9.69335982 116 13 C115.11490439 17.48765418 112.57664166 20.39889499 109.75 23.875 C109.03263672 24.77412109 109.03263672 24.77412109 108.30078125 25.69140625 C105.25017932 29.50259186 102.13524403 33.25830366 99 37 C97.02 36.34 95.04 35.68 93 35 C91.95199219 35.97453125 91.95199219 35.97453125 90.8828125 36.96875 C89.97273437 37.8040625 89.06265625 38.639375 88.125 39.5 C87.22007812 40.3353125 86.31515625 41.170625 85.3828125 42.03125 C83 44 83 44 81 44 C81 44.66 81 45.32 81 46 C79.38281689 47.4328718 77.70376628 48.79624749 76 50.125 C71.69247005 53.56661164 67.75630358 57.12920167 63.9140625 61.07421875 C55.55915066 69.48028311 55.55915066 69.48028311 51 71 C51 71.66 51 72.32 51 73 C49.3623728 74.45402342 47.66265804 75.83848678 45.9375 77.1875 C40.81963124 81.30140502 40.81963124 81.30140502 35.9375 85.6875 C35.14666016 86.43580078 35.14666016 86.43580078 34.33984375 87.19921875 C32.81157102 89.01959696 32.81157102 89.01959696 32.2734375 91.7578125 C30.45762579 96.38089139 27.34138931 98.92373043 23.6875 102.1875 C23.02298828 102.80302734 22.35847656 103.41855469 21.67382812 104.05273438 C18.30250606 107.13060803 15.05702975 109.84200545 11 112 C8.70387244 94.14350797 8.70387244 94.14350797 9 86 C10.98 85.01 10.98 85.01 13 84 C11.87223373 69.54555944 10.54950714 55.12432435 8.96557617 40.7121582 C8.36293111 35.11085335 7.81796165 29.63491432 8 24 C6.02 24.33 4.04 24.66 2 25 C0.47983837 16.58481953 -0.27733386 8.5511272 0 0 Z " fill="#968F83" transform="translate(466,121)" data-index="2" style="opacity: 1;"></path>
<path d="M0 0 C1.36693708 4.42995672 0.24741761 7.95815889 -0.921875 12.3203125 C-1.13777786 13.15587677 -1.35368073 13.99144104 -1.5761261 14.85232544 C-2.29170072 17.61232888 -3.02074825 20.36858174 -3.75 23.125 C-4.25008602 25.04242996 -4.74934276 26.96007638 -5.24780273 28.87792969 C-6.29036464 32.8820052 -7.33878585 36.8844792 -8.39208984 40.88574219 C-9.9760157 46.90295638 -11.54569382 52.92382485 -13.11328125 58.9453125 C-14.99850705 66.17849992 -16.88653053 73.41094211 -18.78515625 80.640625 C-18.98055496 81.38676056 -19.17595367 82.13289612 -19.37727356 82.90164185 C-20.5302489 87.2845867 -21.74028262 91.64649668 -23 96 C-22.360625 95.34 -21.72125 94.68 -21.0625 94 C-18.68217742 91.60619118 -16.17568706 89.39809545 -13.625 87.1875 C-9.84591254 83.87527811 -6.57875946 80.36395962 -3.41015625 76.46875 C-2.94480469 75.9840625 -2.47945313 75.499375 -2 75 C-1.34 75 -0.68 75 0 75 C0 74.34 0 73.68 0 73 C1.50390625 71.5546875 1.50390625 71.5546875 3.5625 69.875 C7.31756613 66.70687138 10.45265657 63.30569764 13.5546875 59.50390625 C14.03164063 59.00761719 14.50859375 58.51132812 15 58 C15.66 58 16.32 58 17 58 C17.32762329 57.18233154 17.32762329 57.18233154 17.66186523 56.34814453 C19.44173638 53.22484574 21.85688814 50.9157703 24.41015625 48.4296875 C24.93765976 47.90738556 25.46516327 47.38508362 26.00865173 46.84695435 C27.6885713 45.18479666 29.37504272 43.52950195 31.0625 41.875 C32.75263016 40.21249027 34.4412772 38.54854046 36.12705994 36.88162231 C37.17490971 35.8460278 38.22542114 34.81311817 39.27882385 33.78317261 C41.98361429 31.15409686 41.98361429 31.15409686 44 28 C44.66 28 45.32 28 46 28 C45.66824719 30.33355858 45.33459662 32.66684749 45 35 C44.83504028 36.5208168 44.83504028 36.5208168 44.66674805 38.07235718 C42.19147736 51.30401507 32.08459764 59.16914871 22.8125 68.1640625 C20.98715408 69.97072587 19.16402683 71.77963334 17.34301758 73.59066772 C13.05242945 77.84713389 8.74036696 82.08062746 4.41671848 86.30347192 C-0.49345446 91.10161981 -5.3750685 95.92838962 -10.25451469 100.75775075 C-18.59548592 109.0121466 -26.95730907 117.2449681 -35.34292603 125.45401001 C-38.57749357 128.62080009 -41.80958959 131.788566 -45 135 C-46.65 134.34 -48.3 133.68 -50 133 C-49.71515154 131.26969709 -49.42180062 129.54079286 -49.125 127.8125 C-48.96257812 126.84957031 -48.80015625 125.88664062 -48.6328125 124.89453125 C-48 122 -48 122 -47.07421875 119.734375 C-45.50455493 115.7388671 -44.64597486 111.61570223 -43.6875 107.4375 C-43.24570651 105.54796295 -42.80297454 103.65864512 -42.359375 101.76953125 C-42.02196289 100.3302124 -42.02196289 100.3302124 -41.67773438 98.86181641 C-38.85754448 86.95321918 -35.81285398 75.09763435 -32.6171875 63.28466797 C-31.87735766 60.54600988 -31.1417932 57.80621873 -30.40625 55.06640625 C-28.90879817 49.49098288 -27.40690838 43.91676966 -25.90234375 38.34326172 C-25.30539327 36.13150851 -24.70902978 33.91959679 -24.11328125 31.70751953 C-23.28606532 28.63774367 -22.45596871 25.56876183 -21.625 22.5 C-21.24915771 21.10285767 -21.24915771 21.10285767 -20.86572266 19.67749023 C-20.6341748 18.82485596 -20.40262695 17.97222168 -20.1640625 17.09375 C-19.86169678 15.97516602 -19.86169678 15.97516602 -19.55322266 14.83398438 C-19 13 -19 13 -18 11 C-16.68 11.33 -15.36 11.66 -14 12 C-14 15.3 -14 18.6 -14 22 C-11.69 22.66 -9.38 23.32 -7 24 C-6.823479 23.30849854 -6.64695801 22.61699707 -6.46508789 21.90454102 C-5.66780317 18.78959866 -4.86522506 15.67604459 -4.0625 12.5625 C-3.78470703 11.47388672 -3.50691406 10.38527344 -3.22070312 9.26367188 C-2.81948242 7.71196289 -2.81948242 7.71196289 -2.41015625 6.12890625 C-2.16402588 5.17056885 -1.91789551 4.21223145 -1.66430664 3.22485352 C-1 1 -1 1 0 0 Z " fill="#928A7F" transform="translate(413,289)" data-index="3" style="opacity: 1;"></path>
<path d="M0 0 C15.91676177 0.73948191 31.79788704 1.88598897 47.6875 3.0625 C50.2506379 3.25083005 52.81378886 3.4389823 55.37695312 3.62695312 C61.5847873 4.08258973 67.79245764 4.54040576 74 5 C73.33789062 11.63916016 73.33789062 11.63916016 70.296875 14.88671875 C69.12860099 15.83779536 67.9452813 16.77059571 66.75 17.6875 C65.46542526 18.72667132 64.18292085 19.76840634 62.90234375 20.8125 C62.24991699 21.3384375 61.59749023 21.864375 60.92529297 22.40625 C57.93904104 24.87825768 55.13020007 27.52697775 52.3125 30.1875 C48.54397417 33.71651282 44.72812436 37.09206208 40.6875 40.3125 C35.13380539 44.76685623 29.98644537 49.60448744 24.83276367 54.5090332 C21.51525483 57.66273508 18.17383636 60.78452721 14.76171875 63.8359375 C14.13612061 64.39587402 13.51052246 64.95581055 12.8659668 65.53271484 C10.99302214 67.00548697 9.16380755 68.0164239 7 69 C5.5081618 55.77286034 4.09342459 42.53827186 2.71289062 29.29907227 C2.37003826 26.01497266 2.02487031 22.731121 1.6796875 19.44726562 C1.46079656 17.35157722 1.24204133 15.25587463 1.0234375 13.16015625 C0.92034271 12.18216568 0.81724792 11.20417511 0.71102905 10.19654846 C0.61738068 9.29387741 0.5237323 8.39120636 0.42724609 7.46118164 C0.34445404 6.66942032 0.26166199 5.877659 0.17636108 5.06190491 C0 3 0 3 0 0 Z " fill="#D3D5DC" transform="translate(485,136)" data-index="4" style="opacity: 1; visibility: visible; stroke-width: 2px;"></path>
<path d="M0 0 C1.32 0.33 2.64 0.66 4 1 C3.3731466 8.79805631 1.63276836 16.12088154 -0.3125 23.6875 C-0.63009277 24.94046875 -0.94768555 26.1934375 -1.27490234 27.484375 C-3.08090078 34.56440567 -4.97417625 41.60189061 -7.04296875 48.609375 C-8.27277854 52.96641539 -9.35516723 57.35436982 -10.4375 61.75 C-11.98425835 68.03120437 -13.60588885 74.2778081 -15.375 80.5 C-18.00380112 89.75406165 -20.30064526 99.08844898 -22.58935547 108.43164062 C-22.87311035 109.58341797 -23.15686523 110.73519531 -23.44921875 111.921875 C-23.70018311 112.94893555 -23.95114746 113.97599609 -24.2097168 115.03417969 C-25.01904836 118.07148577 -25.97595283 121.02890666 -27 124 C-28.65 123.34 -30.3 122.68 -32 122 C-31.71515154 120.26969709 -31.42180062 118.54079286 -31.125 116.8125 C-30.96257812 115.84957031 -30.80015625 114.88664062 -30.6328125 113.89453125 C-30 111 -30 111 -29.07421875 108.734375 C-27.50455493 104.7388671 -26.64597486 100.61570223 -25.6875 96.4375 C-25.24570651 94.54796295 -24.80297454 92.65864512 -24.359375 90.76953125 C-24.02196289 89.3302124 -24.02196289 89.3302124 -23.67773438 87.86181641 C-20.85754448 75.95321918 -17.81285398 64.09763435 -14.6171875 52.28466797 C-13.87735766 49.54600988 -13.1417932 46.80621873 -12.40625 44.06640625 C-10.90879817 38.49098288 -9.40690838 32.91676966 -7.90234375 27.34326172 C-7.30539327 25.13150851 -6.70902978 22.91959679 -6.11328125 20.70751953 C-5.28606532 17.63774367 -4.45596871 14.56876183 -3.625 11.5 C-3.24915771 10.10285767 -3.24915771 10.10285767 -2.86572266 8.67749023 C-2.6341748 7.82485596 -2.40262695 6.97222168 -2.1640625 6.09375 C-1.86169678 4.97516602 -1.86169678 4.97516602 -1.55322266 3.83398438 C-1 2 -1 2 0 0 Z " fill="#45433E" transform="translate(395,300)" data-index="5"></path>
<path d="M0 0 C1.32 0 2.64 0 4 0 C5.68599416 9.79440372 6.69102013 19.58157356 7.57476807 29.47372437 C9.01856435 45.57548169 10.70989412 61.63524683 12.625 77.6875 C14.24930722 91.32006221 15.76382652 104.9373228 16.81054688 118.62890625 C17.16694853 123.08943833 17.58636203 127.54446821 18 132 C16.07592773 131.63378906 16.07592773 131.63378906 14 131 C11.85606354 127.22225988 11.66502127 123.52933615 11.4375 119.25 C11.56485421 115.30633827 11.56485421 115.30633827 10 112 C9.74516469 109.84259832 9.5537242 107.67769018 9.38671875 105.51171875 C9.27422235 104.10708563 9.16158535 102.70246377 9.04882812 101.29785156 C8.99025635 100.548302 8.93168457 99.79875244 8.87133789 99.02648926 C7.81389623 85.57254527 6.53355917 72.1577253 5 58.75 C3.75374697 47.80027699 2.53099678 36.85028916 1.44873047 25.88293457 C1.25690203 23.94473677 1.06018267 22.00702495 0.86328125 20.06933594 C0.21061543 13.35384466 -0.17444951 6.74731944 0 0 Z " fill="#87847D" transform="translate(430,123)" data-index="6"></path>
<path d="M0 0 C0.38671875 2.6484375 0.38671875 2.6484375 0 6 C-2.03067192 8.17376274 -3.85972354 9.83199531 -6.1875 11.625 C-7.4811801 12.67330139 -8.77279964 13.72415004 -10.0625 14.77734375 C-10.72121094 15.30956543 -11.37992188 15.84178711 -12.05859375 16.39013672 C-15.04855166 18.86948562 -17.86418603 21.52189158 -20.6875 24.1875 C-24.45604522 27.71649516 -28.27187311 31.09206006 -32.3125 34.3125 C-37.86619461 38.76685623 -43.01355463 43.60448744 -48.16723633 48.5090332 C-51.48474517 51.66273508 -54.82616364 54.78452721 -58.23828125 57.8359375 C-59.17667847 58.67584229 -59.17667847 58.67584229 -60.1340332 59.53271484 C-62.00697786 61.00548697 -63.83619245 62.0164239 -66 63 C-66.390625 59.859375 -66.390625 59.859375 -66 56 C-63.93348287 53.71338046 -62.1646167 52.08085977 -59.75 50.25 C-58.45929138 49.21167835 -57.17025867 48.17127037 -55.8828125 47.12890625 C-54.90489746 46.34990967 -54.90489746 46.34990967 -53.90722656 45.55517578 C-51.03731685 43.21501643 -48.33058006 40.71393747 -45.625 38.1875 C-41.7968276 34.64335731 -37.92906786 31.15689324 -33.98828125 27.73828125 C-31.65914948 25.70200691 -29.36012839 23.63424787 -27.0625 21.5625 C-26.22847656 20.81226563 -25.39445313 20.06203125 -24.53515625 19.2890625 C-22.82893954 17.74847238 -21.12850285 16.20145923 -19.43359375 14.6484375 C-18.63050781 13.91882813 -17.82742188 13.18921875 -17 12.4375 C-16.278125 11.77621094 -15.55625 11.11492187 -14.8125 10.43359375 C-13 9 -13 9 -11 9 C-11 8.34 -11 7.68 -11 7 C-9.1015625 5.2734375 -9.1015625 5.2734375 -6.625 3.375 C-5.81289063 2.74335938 -5.00078125 2.11171875 -4.1640625 1.4609375 C-2 0 -2 0 0 0 Z " fill="#F8F8F7" transform="translate(558,142)" data-index="7" style="opacity: 1;"></path>
<path d="M0 0 C2.29265562 3.71834063 2.64919403 7.62394666 3.125 11.875 C3.21136719 12.56980469 3.29773438 13.26460937 3.38671875 13.98046875 C3.86459595 18.00829088 4.08896677 21.94565712 4 26 C5.98 25.67 7.96 25.34 10 25 C10.80787943 32.36190581 11.60814214 39.72459764 12.39872074 47.08838272 C12.76606616 50.50774615 13.13601837 53.92678529 13.51196289 57.34521484 C13.94415895 61.27619126 14.36495474 65.20834758 14.78515625 69.140625 C14.92156021 70.36678528 15.05796417 71.59294556 15.19850159 72.85626221 C15.31870163 73.99714294 15.43890167 75.13802368 15.56274414 76.31347656 C15.67155411 77.31719299 15.78036407 78.32090942 15.89247131 79.3550415 C15.99342117 81.83817595 15.75378692 83.64914626 15 86 C13.02 86.495 13.02 86.495 11 87 C11.3074354 90.41714219 11.62183088 93.83360937 11.9375 97.25 C12.06801758 98.70212891 12.06801758 98.70212891 12.20117188 100.18359375 C12.28818359 101.11816406 12.37519531 102.05273438 12.46484375 103.015625 C12.543396 103.87446289 12.62194824 104.73330078 12.70288086 105.61816406 C12.97709903 107.81641589 13.41066966 109.86718545 14 112 C14.70125 111.35933594 15.4025 110.71867187 16.125 110.05859375 C17.07375 109.19363281 18.0225 108.32867187 19 107.4375 C19.74624634 106.75349121 19.74624634 106.75349121 20.50756836 106.05566406 C23.45822899 103.36143835 26.47290158 100.78199134 29.5625 98.25 C32.88439782 95.38260732 33.63595864 93.17737667 35 89 C37.44387395 86.09119393 40.19420863 83.55562466 43 81 C44.10601562 79.97712891 44.10601562 79.97712891 45.234375 78.93359375 C50.69621212 74 50.69621212 74 53 74 C53 73.34 53 72.68 53 72 C54.64453125 70.30859375 54.64453125 70.30859375 56.8125 68.4375 C57.87404297 67.50744141 57.87404297 67.50744141 58.95703125 66.55859375 C61 65 61 65 64 64 C64 66 64 66 62.63671875 67.375 C61.99347656 67.91125 61.35023438 68.4475 60.6875 69 C56.26028671 72.76117235 51.96784823 76.65055955 47.69140625 80.58203125 C45.3296982 82.70379799 42.90620143 84.69372117 40.4375 86.6875 C37.65182159 89.07761208 37.081152 89.66290706 36.1875 93.375 C34.51814962 98.47091169 31.28551336 100.37420933 27.109375 103.578125 C23.86475905 106.10533843 20.83356237 108.77699999 17.8125 111.5625 C16.89082031 112.40941406 15.96914063 113.25632812 15.01953125 114.12890625 C14.01986328 115.05509766 14.01986328 115.05509766 13 116 C11.00576896 113.00865344 10.68927789 111.99440678 10.3671875 108.578125 C10.28339844 107.71703125 10.19960938 106.8559375 10.11328125 105.96875 C10.03464844 105.0715625 9.95601563 104.174375 9.875 103.25 C9.78863281 102.36828125 9.70226562 101.4865625 9.61328125 100.578125 C9.15560069 95.69619905 8.90623759 90.90243465 9 86 C11.475 85.505 11.475 85.505 14 85 C13.85377197 83.76024414 13.70754395 82.52048828 13.55688477 81.24316406 C13.0087794 76.59154744 12.46335933 71.93961906 11.91870117 67.28759766 C11.68374317 65.28393247 11.44808158 63.28034966 11.21166992 61.27685547 C8.80083 40.83823371 8.80083 40.83823371 8.22631836 32.03808594 C8.11171263 29.93528606 8.11171263 29.93528606 7 28 C5.35 28.33 3.7 28.66 2 29 C-0.29612756 9.03189066 -0.29612756 9.03189066 0 0 Z " fill="#565046" transform="translate(464,120)" data-index="8" style="opacity: 1;"></path>
<path d="M0 0 C2.64 0.66 5.28 1.32 8 2 C7.01 2.495 7.01 2.495 6 3 C10.52368019 11.07893374 10.52368019 11.07893374 15.6875 18.75 C17.83529324 21.76852023 19.39796791 24.64894255 20.91015625 28.0078125 C22.00804534 30.15794476 22.00804534 30.15794476 23.94921875 32.39453125 C26.02790679 35.03545491 27.34235062 37.51949326 28.75 40.5625 C31.94207261 47.12398258 35.84800088 53.0137844 40 59 C51.5675054 75.77011548 51.5675054 75.77011548 53 83 C53.66 83 54.32 83 55 83 C55 83.99 55 84.98 55 86 C55.66 86 56.32 86 57 86 C57.33 87.32 57.66 88.64 58 90 C54.2102711 87.9927538 52.14748841 86.24407076 49.94921875 82.5703125 C49.41490234 81.69117187 48.88058594 80.81203125 48.33007812 79.90625 C47.51700195 78.52953125 47.51700195 78.52953125 46.6875 77.125 C46.15705078 76.24585937 45.62660156 75.36671875 45.08007812 74.4609375 C43.97121239 72.62300914 42.86662881 70.78249189 41.76586914 68.93969727 C39.89952405 65.83273456 38.00427445 62.74497265 36.1015625 59.66015625 C31.93098252 52.8972697 27.80581944 46.1072634 23.6875 39.3125 C18.27904827 30.39312925 12.86428363 21.47784049 7.39916992 12.59301758 C4.85111586 8.4388859 2.39838481 4.24245186 0 0 Z " fill="#A8A49C" transform="translate(321,24)" data-index="9"></path>
<path d="M0 0 C0 3.99897642 -1.35316035 5.06701552 -4 8 C-4.86625 8.680625 -5.7325 9.36125 -6.625 10.0625 C-9.07314985 11.78182464 -9.07314985 11.78182464 -10 14.0625 C-11.38398834 16.74397741 -13.44825382 17.46895229 -16 19 C-16.33 19.66 -16.66 20.32 -17 21 C-18 23 -18 23 -20.23046875 24.3203125 C-23.33750347 26.20469181 -25.71205529 28.34004797 -28.3125 30.875 C-29.19550781 31.71804688 -30.07851563 32.56109375 -30.98828125 33.4296875 C-33.23506427 35.83106428 -33.23506427 35.83106428 -33.29296875 38.8203125 C-33.19628906 39.53960937 -33.09960938 40.25890625 -33 41 C-33.680625 41.04125 -34.36125 41.0825 -35.0625 41.125 C-40.86924714 42.85466936 -45.77962511 47.97621517 -49 53 C-49.33592508 55.7104607 -49.33592508 55.7104607 -49 58 C-49.85078125 57.86980469 -50.7015625 57.73960937 -51.578125 57.60546875 C-56.51834002 58.17505975 -58.47451285 60.76970298 -61.75 64.3125 C-62.32621094 64.90740234 -62.90242188 65.50230469 -63.49609375 66.11523438 C-65.93963532 68.66415012 -68.03282052 71.04923078 -70 74 C-71.485 74.99 -71.485 74.99 -73 76 C-74.21284876 79.05429073 -74.21284876 79.05429073 -75 82 C-76.32 82 -77.64 82 -79 82 C-77.5178318 76.48923929 -73.64327133 73.24309784 -69.70458984 69.36401367 C-68.95327286 68.61225861 -68.20195587 67.86050354 -67.4278717 67.08596802 C-64.94593918 64.60612334 -62.45355396 62.13707038 -59.9609375 59.66796875 C-58.23678376 57.94941094 -56.51329174 56.23018903 -54.79043579 54.5103302 C-50.25634982 49.98769308 -45.71332653 45.47413783 -41.168396 40.96240234 C-36.53132147 36.35602753 -31.90273835 31.74113792 -27.2734375 27.12695312 C-18.19059246 18.07627299 -9.09857007 9.03487035 0 0 Z " fill="#C5C3C2" transform="translate(449,342)" data-index="10"></path>
<path d="M0 0 C1.36693708 4.42995672 0.24741761 7.95815889 -0.921875 12.3203125 C-1.13777786 13.15587677 -1.35368073 13.99144104 -1.5761261 14.85232544 C-2.29170072 17.61232888 -3.02074825 20.36858174 -3.75 23.125 C-4.25008602 25.04242996 -4.74934276 26.96007638 -5.24780273 28.87792969 C-6.29036464 32.8820052 -7.33878585 36.8844792 -8.39208984 40.88574219 C-9.9760157 46.90295638 -11.54569382 52.92382485 -13.11328125 58.9453125 C-14.99850705 66.17849992 -16.88653053 73.41094211 -18.78515625 80.640625 C-19.07825432 81.75982834 -19.07825432 81.75982834 -19.37727356 82.90164185 C-20.5302489 87.2845867 -21.74028262 91.64649668 -23 96 C-22.278125 95.236875 -21.55625 94.47375 -20.8125 93.6875 C-18.30209033 91.28866409 -16.03191698 89.64589779 -13 88 C-14.39750048 91.15835107 -16.05198234 93.32272825 -18.5 95.75 C-19.1084375 96.36359375 -19.716875 96.9771875 -20.34375 97.609375 C-22 99 -22 99 -24 99 C-24.33 99.99 -24.66 100.98 -25 102 C-25.66 101.67 -26.32 101.34 -27 101 C-26.8047876 100.27449951 -26.6095752 99.54899902 -26.40844727 98.80151367 C-22.38385008 83.82450444 -18.41697862 68.83424271 -14.5625 53.8125 C-14.37857697 53.09623444 -14.19465393 52.37996887 -14.00515747 51.64199829 C-12.0290348 43.94431238 -10.0611881 36.24455197 -8.10276794 28.54234314 C-7.27110534 25.2737203 -6.43685891 22.00575981 -5.6022644 18.73788452 C-5.20243809 17.16923228 -4.80392804 15.60024393 -4.4067688 14.03091431 C-3.85759949 11.86095561 -3.30426244 9.69209991 -2.75 7.5234375 C-2.43546875 6.28513184 -2.1209375 5.04682617 -1.796875 3.77099609 C-1 1 -1 1 0 0 Z " fill="#585248" transform="translate(413,289)" data-index="11"></path>
<path d="M0 0 C8.25 0.33 16.5 0.66 25 1 C25.33 2.65 25.66 4.3 26 6 C27.9480957 5.97292969 27.9480957 5.97292969 29.93554688 5.9453125 C34.68449808 5.94716629 39.31627425 6.34281025 44.03125 6.875 C45.74737172 7.05751857 47.4635184 7.23980252 49.1796875 7.421875 C51.82754129 7.7081821 54.47503562 7.99722928 57.12207031 8.29101562 C68.8024636 9.57861803 80.24739675 10.27563109 92 10 C92.66 8.35 93.32 6.7 94 5 C100.75 5.75 100.75 5.75 103 8 C100.36 7.67 97.72 7.34 95 7 C94.34 8.98 93.68 10.96 93 13 C84.75376278 13.16428196 76.66586778 12.66067672 68.45703125 11.90625 C66.58261604 11.73977966 66.58261604 11.73977966 64.67033386 11.56994629 C61.3871159 11.27749363 58.10430903 10.98089597 54.82165527 10.68218994 C51.45629102 10.37701914 48.09042976 10.07743419 44.72460938 9.77734375 C38.14927568 9.18997697 31.57445367 8.59713214 25 8 C24.67 6.35 24.34 4.7 24 3 C23.37432129 2.97494385 22.74864258 2.9498877 22.10400391 2.92407227 C19.27745381 2.80824727 16.45124831 2.68546015 13.625 2.5625 C12.64015625 2.52318359 11.6553125 2.48386719 10.640625 2.44335938 C9.69960938 2.40146484 8.75859375 2.35957031 7.7890625 2.31640625 C6.91975098 2.27974854 6.05043945 2.24309082 5.15478516 2.20532227 C3 2 3 2 1 1 C0.67 1.99 0.34 2.98 0 4 C0 2.68 0 1.36 0 0 Z " fill="#767064" transform="translate(465,120)" data-index="12"></path>
<path d="M0 0 C0.99 0.33 1.98 0.66 3 1 C2.44218531 4.42984988 1.54711057 5.73889229 -1.24609375 7.76953125 C-1.91398926 8.26300049 -2.58188477 8.75646973 -3.27001953 9.26489258 C-3.98528809 9.77560303 -4.70055664 10.28631348 -5.4375 10.8125 C-6.16308105 11.33932373 -6.88866211 11.86614746 -7.63623047 12.40893555 C-9.08732015 13.46038667 -10.54138052 14.50775147 -11.99853516 15.55078125 C-13.71433578 16.79315653 -15.39784818 18.0799132 -17.07421875 19.375 C-17.91597656 20.014375 -18.75773437 20.65375 -19.625 21.3125 C-20.33914063 21.86550781 -21.05328125 22.41851562 -21.7890625 22.98828125 C-24.8115536 24.37136463 -26.83745392 23.77477848 -30 23 C-30 22.34 -30 21.68 -30 21 C-28.03346757 19.42984676 -26.06880784 17.98771547 -24 16.5625 C-23.3814917 16.13090576 -22.7629834 15.69931152 -22.12573242 15.25463867 C-20.79187894 14.32531589 -19.4561032 13.39874744 -18.11865234 12.47460938 C-15.93594652 10.95541795 -13.77379912 9.4099263 -11.61328125 7.859375 C-10.1800664 6.84321537 -8.74648101 5.82757815 -7.3125 4.8125 C-6.62994141 4.31886963 -5.94738281 3.82523926 -5.24414062 3.31665039 C-3.5494145 2.13098082 -1.7791107 1.05483368 0 0 Z " fill="#F8F8F7" transform="translate(442,253)" data-index="13"></path>
<path d="M0 0 C8.79485363 -0.24074877 17.35587514 0.70312317 26.0703125 1.75 C27.60295824 1.92986488 29.13566408 2.10921823 30.66842651 2.28808594 C34.67037151 2.75647159 38.67147061 3.23172704 42.67242432 3.70849609 C46.76810024 4.1952927 50.8645506 4.6754797 54.9609375 5.15625 C62.97472386 6.09775781 70.98762738 7.04653618 79 8 C79 8.99 79 9.98 79 11 C77.3489217 12.02553315 75.67830121 13.01965169 74 14 C72.04780082 15.86579479 70.16745622 17.73159378 68.3125 19.6875 C66.57842567 21.51368984 64.82935827 23.26490818 63 25 C62.34 25 61.68 25 61 25 C62.13685423 21.58943731 63.15331969 20.80065835 65.875 18.5625 C68.68861414 16.24204701 70.90741794 13.99410327 73 11 C72.505 10.01 72.505 10.01 72 9 C70.79118164 9.03085693 69.58236328 9.06171387 68.33691406 9.09350586 C62.03546467 9.08913135 55.85476786 8.2802406 49.609375 7.50390625 C48.34659729 7.35090561 47.08381958 7.19790497 45.78277588 7.04026794 C43.12664978 6.71742735 40.47086154 6.39263053 37.81542969 6.06420898 C34.42126648 5.64448306 31.02636036 5.23118815 27.63113022 4.82019138 C24.37358557 4.42549076 21.11647975 4.0272183 17.859375 3.62890625 C16.03741608 3.4069735 16.03741608 3.4069735 14.1786499 3.18055725 C13.04687317 3.04048752 11.91509644 2.90041779 10.74902344 2.75610352 C9.75690857 2.63396988 8.7647937 2.51183624 7.74261475 2.38600159 C5.13501923 2.0190029 2.57573725 1.54475451 0 1 C0 0.67 0 0.34 0 0 Z " fill="#7A7468" transform="translate(603,88)" data-index="14"></path>
<path d="M0 0 C0.60403152 0.10387024 1.20806305 0.20774048 1.83039856 0.3147583 C40.84479919 7.1009618 40.84479919 7.1009618 80 13 C80 13.66 80 14.32 80 15 C69.16474882 14.43501806 58.60167465 12.50697024 47.9375 10.625 C44.42616935 10.0107844 40.91436927 9.39929169 37.40234375 8.7890625 C36.54329437 8.63979309 35.684245 8.49052368 34.79916382 8.33673096 C28.68565397 7.27947882 22.56726728 6.25665192 16.44140625 5.2734375 C15.64959457 5.1443399 14.8577829 5.01524231 14.04197693 4.88223267 C10.63235978 4.34214286 7.46249221 4 4 4 C4.77537109 5.26457031 4.77537109 5.26457031 5.56640625 6.5546875 C6.22511719 7.65039062 6.88382812 8.74609375 7.5625 9.875 C8.22378906 10.96554688 8.88507813 12.05609375 9.56640625 13.1796875 C10.03949219 14.11039063 10.51257813 15.04109375 11 16 C10.67 16.66 10.34 17.32 10 18 C9.52949219 17.25234375 9.05898438 16.5046875 8.57421875 15.734375 C7.95160156 14.74953125 7.32898438 13.7646875 6.6875 12.75 C6.07261719 11.77546875 5.45773437 10.8009375 4.82421875 9.796875 C3.0939594 7.04760742 3.0939594 7.04760742 1.26953125 4.828125 C0 3 0 3 0 0 Z " fill="#766F64" transform="translate(350,42)" data-index="15"></path>
<path d="M0 0 C1.32 0.66 2.64 1.32 4 2 C2.4373676 5.83555225 -0.06449968 8.13609725 -3 11 C-3.556875 11.763125 -4.11375 12.52625 -4.6875 13.3125 C-5.3371875 14.1478125 -5.3371875 14.1478125 -6 15 C-6.66 15 -7.32 15 -8 15 C-8.66 16.32 -9.32 17.64 -10 19 C-11.98 18.67 -13.96 18.34 -16 18 C-16.33 18.66 -16.66 19.32 -17 20 C-17 19.01 -17 18.02 -17 17 C-16.34 17 -15.68 17 -15 17 C-14.7525 16.46375 -14.505 15.9275 -14.25 15.375 C-11.27871903 9.72956615 -9.041871 6.4716745 -3 4 C-3 3.34 -3 2.68 -3 2 C-2.01 2 -1.02 2 0 2 C0 1.34 0 0.68 0 0 Z " fill="#C4C3BF" transform="translate(411,282)" data-index="16"></path>
<path d="M0 0 C0.94746094 0.08765625 1.89492188 0.1753125 2.87109375 0.265625 C5.4641689 0.73230326 7.29423902 1.44159414 9.5625 2.75 C8.96566406 2.70617187 8.36882813 2.66234375 7.75390625 2.6171875 C-0.49387182 2.64169798 -5.92513891 5.97027416 -12.59741211 10.41943359 C-13.29616455 10.8727002 -13.99491699 11.3259668 -14.71484375 11.79296875 C-15.33609131 12.21602295 -15.95733887 12.63907715 -16.59741211 13.07495117 C-18.4375 13.75 -18.4375 13.75 -20.67016602 12.87231445 C-21.25338623 12.50195068 -21.83660645 12.13158691 -22.4375 11.75 C-22.4375 11.09 -22.4375 10.43 -22.4375 9.75 C-21.46167969 9.19570312 -20.48585938 8.64140625 -19.48046875 8.0703125 C-18.19527981 7.33859909 -16.91012536 6.60682508 -15.625 5.875 C-14.98240234 5.51019531 -14.33980469 5.14539063 -13.67773438 4.76953125 C-4.49592671 -0.46362338 -4.49592671 -0.46362338 0 0 Z " fill="#F7F7F5" transform="translate(618.4375,74.25)" data-index="17"></path>
<path d="M0 0 C3.41187342 2.94513051 4.53664244 4.81318269 5.046875 9.28125 C5.16933594 10.28800781 5.29179687 11.29476562 5.41796875 12.33203125 C5.58232422 13.90017578 5.58232422 13.90017578 5.75 15.5 C5.87503906 16.54542969 6.00007813 17.59085938 6.12890625 18.66796875 C6.61246925 22.8181083 7 26.81669868 7 31 C5.125 30.8125 5.125 30.8125 3 30 C-1.41911058 21.22490899 -0.15535468 9.58020551 0 0 Z " fill="#83817A" transform="translate(441,224)" data-index="18"></path>
<path d="M0 0 C0.66 0 1.32 0 2 0 C2 0.66 2 1.32 2 2 C3.65 1.67 5.3 1.34 7 1 C7 1.66 7 2.32 7 3 C8.32 2.67 9.64 2.34 11 2 C11 2.66 11 3.32 11 4 C11.59280762 3.98259766 12.18561523 3.96519531 12.79638672 3.94726562 C19.37609072 3.83967459 25.63120791 4.48762511 32.125 5.5 C33.08148437 5.64308594 34.03796875 5.78617187 35.0234375 5.93359375 C37.35002216 6.28258145 39.67539156 6.63812333 42 7 C42 7.33 42 7.66 42 8 C32.77289896 8.19074609 23.7921606 7.65346246 14.625 6.625 C13.40683594 6.49867187 12.18867187 6.37234375 10.93359375 6.2421875 C5.09020595 5.60495873 -0.42500938 4.89122101 -6 3 C-6 2.67 -6 2.34 -6 2 C-4.02 2 -2.04 2 0 2 C0 1.34 0 0.68 0 0 Z " fill="#EDEAE1" transform="translate(515,74)" data-index="19"></path>
<path d="M0 0 C0 3.947539 -1.37212615 5.00723981 -3.875 8 C-6.05573971 10.62626718 -8.10486603 13.15729904 -10 16 C-12 16 -12 16 -13.625 14.5 C-14.07875 14.005 -14.5325 13.51 -15 13 C-20.17838868 16.65533319 -24.8704646 20.62399436 -29.5 24.9375 C-30.06017822 25.45892578 -30.62035645 25.98035156 -31.19750977 26.51757812 C-32.2945651 27.54036287 -33.39117722 28.56362326 -34.48730469 29.58740234 C-36.5221493 31.48759778 -38.56161717 33.38077312 -40.625 35.25 C-41.21539063 35.79140625 -41.80578125 36.3328125 -42.4140625 36.890625 C-44 38 -44 38 -47 38 C-34.92370572 25.67211626 -34.92370572 25.67211626 -30 22 C-29.34 22 -28.68 22 -28 22 C-28 21.34 -28 20.68 -28 20 C-26.31350611 18.38910756 -24.54935666 16.85876269 -22.75 15.375 C-21.77546875 14.55773437 -20.8009375 13.74046875 -19.796875 12.8984375 C-16.08577204 10.37944862 -13.41352041 11 -9 11 C-6.5278338 8.57290266 -6.5278338 8.57290266 -4.25 5.5 C-3.05117188 3.96859375 -3.05117188 3.96859375 -1.828125 2.40625 C-1.22484375 1.6121875 -0.6215625 0.818125 0 0 Z " fill="#575147" transform="translate(575,145)" data-index="20"></path>
<path d="M0 0 C1.65 0.66 3.3 1.32 5 2 C3.51475661 5.4655679 2.10722034 7.81274218 -1 10 C-4.59410114 10.26381571 -8.05807863 9.82086517 -11.625 9.375 C-13.07519531 9.22998047 -13.07519531 9.22998047 -14.5546875 9.08203125 C-21.7071355 8.2928645 -21.7071355 8.2928645 -24 6 C-22.15535156 6.10441406 -22.15535156 6.10441406 -20.2734375 6.2109375 C-18.64067987 6.26723949 -17.00786285 6.32183702 -15.375 6.375 C-14.56675781 6.42527344 -13.75851562 6.47554688 -12.92578125 6.52734375 C-8.213479 6.65449351 -8.213479 6.65449351 -4.07519531 4.63769531 C-2.20903186 2.82899838 -2.20903186 2.82899838 0 0 Z " fill="#F4F3EF" transform="translate(582,76)" data-index="21"></path>
<path d="M0 0 C14.79756881 1.53949862 29.37759591 4.3029925 44 7 C44 7.33 44 7.66 44 8 C35.51680989 8.42496719 27.5188986 7.12221247 19.1875 5.625 C17.89134766 5.40328125 16.59519531 5.1815625 15.25976562 4.953125 C4.83277682 3.1209926 4.83277682 3.1209926 0 1 C0 0.67 0 0.34 0 0 Z " fill="#F2F0E9" transform="translate(324,24)" data-index="22"></path>
<path d="M0 0 C0.66 0.99 1.32 1.98 2 3 C1.0925 3.556875 0.185 4.11375 -0.75 4.6875 C-4.00521987 6.76910432 -4.00521987 6.76910432 -5.8671875 9.40234375 C-8.14662565 12.17858252 -10.40610671 13.87078912 -13.375 15.875 C-18.06363256 19.1765003 -21.50799461 22.46983085 -25 27 C-25.99 26.67 -26.98 26.34 -28 26 C-26.38113585 24.32737283 -24.7547271 22.66204463 -23.125 21 C-22.22007812 20.071875 -21.31515625 19.14375 -20.3828125 18.1875 C-18 16 -18 16 -16 16 C-16 15.34 -16 14.68 -16 14 C-14.42578125 12.4140625 -14.42578125 12.4140625 -12.3125 10.625 C-11.58289063 10.00367188 -10.85328125 9.38234375 -10.1015625 8.7421875 C-7.75735955 6.79885197 -5.37766514 4.90213211 -3 3 C-1.9826127 2.01769502 -0.97403883 1.02530403 0 0 Z " fill="#C7C8CF" transform="translate(558,212)" data-index="23"></path>
<path d="M0 0 C0.66 0.33 1.32 0.66 2 1 C-0.662342 3.69181275 -3.33066667 6.37762147 -6 9.0625 C-7.11568359 10.19075195 -7.11568359 10.19075195 -8.25390625 11.34179688 C-12.45542841 15.56158652 -16.74382146 19.59280961 -21.25878906 23.47485352 C-24.12327095 25.98388581 -26.7119495 28.74142906 -29.3359375 31.49609375 C-31 33 -31 33 -33 33 C-31.88559348 29.65678045 -31.02527657 28.93980381 -28.375 26.75 C-25.63140123 24.42624019 -23.01328204 22.07119176 -20.5 19.5 C-18.12957643 17.08667283 -15.69263692 14.82728147 -13.125 12.625 C-8.51153926 8.65380536 -4.25757544 4.34627493 0 0 Z " fill="#5B544A" transform="translate(644,130)" data-index="24"></path>
<path d="M0 0 C1.32 0 2.64 0 4 0 C3.67 0.99 3.34 1.98 3 3 C3 2.34 3 1.68 3 1 C2.34 1 1.68 1 1 1 C0.7525 1.86625 0.505 2.7325 0.25 3.625 C-1 7 -1 7 -3.0625 10.0625 C-4.92168104 12.88125835 -5.61101539 14.69363079 -6 18 C-6.68707031 18.04898438 -7.37414062 18.09796875 -8.08203125 18.1484375 C-8.98308594 18.22320312 -9.88414062 18.29796875 -10.8125 18.375 C-11.70582031 18.44460937 -12.59914063 18.51421875 -13.51953125 18.5859375 C-16.24398499 18.86645036 -16.24398499 18.86645036 -19 21 C-19.99 20.67 -20.98 20.34 -22 20 C-20.79296875 18.484375 -20.79296875 18.484375 -19 17 C-16.80078125 17.015625 -16.80078125 17.015625 -14.3125 17.25 C-11.58063981 17.25593232 -11.58063981 17.25593232 -9 16 C-5.39167816 11.62645025 -3.29618448 6.13194233 -1 1 C-0.67 0.67 -0.34 0.34 0 0 Z " fill="#C9CAD0" transform="translate(608,165)" data-index="25" style="opacity: 1;"></path>
<path d="M0 0 C0.66 0 1.32 0 2 0 C1.34 2.97 0.68 5.94 0 9 C0.721875 8.236875 1.44375 7.47375 2.1875 6.6875 C4.69790967 4.28866409 6.96808302 2.64589779 10 1 C8.60249952 4.15835107 6.94801766 6.32272825 4.5 8.75 C3.58734375 9.67039062 3.58734375 9.67039062 2.65625 10.609375 C1 12 1 12 -1 12 C-1.33 12.99 -1.66 13.98 -2 15 C-2.66 14.67 -3.32 14.34 -4 14 C-2.68 9.38 -1.36 4.76 0 0 Z " fill="#5F584F" transform="translate(390,376)" data-index="26"></path>
<path d="M0 0 C10.38006571 -0.48741178 19.86185582 0.96022967 30 3 C30 3.33 30 3.66 30 4 C19.7544577 4.23950618 10.12589689 3.77203196 0 2 C0 1.34 0 0.68 0 0 Z " fill="#F3EFE6" transform="translate(478,72)" data-index="27"></path>
<path d="M0 0 C0 3.99897642 -1.35316035 5.06701552 -4 8 C-4.86625 8.680625 -5.7325 9.36125 -6.625 10.0625 C-9.07314985 11.78182464 -9.07314985 11.78182464 -10 14.0625 C-11.38398834 16.74397741 -13.44825382 17.46895229 -16 19 C-17.19232613 21.05003955 -17.19232613 21.05003955 -18 23 C-18.66 23.33 -19.32 23.66 -20 24 C-19.51820956 19.45288289 -17.98577731 17.50933287 -14.74609375 14.35546875 C-13.46508789 13.09379883 -13.46508789 13.09379883 -12.15820312 11.80664062 C-11.26037109 10.94232422 -10.36253906 10.07800781 -9.4375 9.1875 C-8.53580078 8.30384766 -7.63410156 7.42019531 -6.70507812 6.50976562 C-4.47877434 4.33057938 -2.24367741 2.16127083 0 0 Z " fill="#CCCCCB" transform="translate(449,342)" data-index="28"></path>
<path d="M0 0 C5.27116879 -0.15178758 10.08035098 0.37193377 15.25 1.375 C15.95640625 1.50132813 16.6628125 1.62765625 17.390625 1.7578125 C20.831927 2.40957424 23.0477097 3.03180646 26 5 C16.95532459 5.65779458 8.68812802 3.23437506 0 1 C0 0.67 0 0.34 0 0 Z " fill="#F2F0E9" transform="translate(393,36)" data-index="29"></path>
<path d="M0 0 C0 3.44360632 -0.79591532 4.74795392 -2.5 7.6875 C-2.9640625 8.49574219 -3.428125 9.30398437 -3.90625 10.13671875 C-4.2671875 10.75160156 -4.628125 11.36648437 -5 12 C-7.97 12 -10.94 12 -14 12 C-12.68 11.34 -11.36 10.68 -10 10 C-8.20401682 8.34007615 -6.4566899 6.6266028 -4.75 4.875 C-3.85796875 3.96492187 -2.9659375 3.05484375 -2.046875 2.1171875 C-1.37140625 1.41851562 -0.6959375 0.71984375 0 0 Z " fill="#9A958C" transform="translate(604,170)" data-index="30" style="opacity: 1;"></path>
<path d="M0 0 C4.15368406 3.69216361 8.21259731 8.68462027 9.51953125 14.1875 C9.67808594 14.785625 9.83664062 15.38375 10 16 C10.66 16.33 11.32 16.66 12 17 C12 17.99 12 18.98 12 20 C10.35 19.67 8.7 19.34 7 19 C6.95875 18.05125 6.9175 17.1025 6.875 16.125 C6.25586007 11.46716268 3.7994703 8.01189201 1.27734375 4.13671875 C0 2 0 2 0 0 Z " fill="#6F6A61" transform="translate(388,104)" data-index="31"></path>
<path d="M0 0 C0.66 0.33 1.32 0.66 2 1 C1.01 2.485 1.01 2.485 0 4 C0.66 4.66 1.32 5.32 2 6 C-0.03462847 7.01731423 -2.06660427 8.03134319 -4.125 9 C-6.16551151 9.97140377 -6.16551151 9.97140377 -8 12 C-8.33 11.67 -8.66 11.34 -9 11 C-9.33 11.66 -9.66 12.32 -10 13 C-10.99 12.67 -11.98 12.34 -13 12 C-8.71 8.04 -4.42 4.08 0 0 Z " fill="#CED0D5" transform="translate(704,89)" data-index="32"></path>
<path d="M0 0 C0 3.56986156 -0.6045429 4.02094908 -2.9375 6.5625 C-5.24459962 9.08999729 -5.24459962 9.08999729 -7 12 C-7.66 12 -8.32 12 -9 12 C-9.33 12.99 -9.66 13.98 -10 15 C-11.9375 16.0625 -11.9375 16.0625 -14 17 C-14.66 17.66 -15.32 18.32 -16 19 C-16 16 -16 16 -14.53125 14.19067383 C-13.8609375 13.53607178 -13.190625 12.88146973 -12.5 12.20703125 C-11.778125 11.49482422 -11.05625 10.78261719 -10.3125 10.04882812 C-9.549375 9.31083984 -8.78625 8.57285156 -8 7.8125 C-6.8553125 6.68811523 -6.8553125 6.68811523 -5.6875 5.54101562 C-3.79819161 3.68713177 -1.90224794 1.84058931 0 0 Z " fill="#C6C6C5" transform="translate(494,281)" data-index="33"></path>
<path d="M0 0 C1.98 0.99 3.96 1.98 6 3 C6 4.65 6 6.3 6 8 C5.01 8.33 4.02 8.66 3 9 C2.01 8.34 1.02 7.68 0 7 C-0.1875 3.375 -0.1875 3.375 0 0 Z " fill="#6F6D68" transform="translate(411,275)" data-index="34"></path>
<path d="M0 0 C0.33 1.32 0.66 2.64 1 4 C0.48050781 4.30292969 -0.03898438 4.60585937 -0.57421875 4.91796875 C-4.97824341 7.56363976 -8.53276778 10.20771476 -12 14 C-12.66 13.67 -13.32 13.34 -14 13 C-12.38113585 11.32737283 -10.7547271 9.66204463 -9.125 8 C-8.22007812 7.071875 -7.31515625 6.14375 -6.3828125 5.1875 C-4 3 -4 3 -2 3 C-2 2.34 -2 1.68 -2 1 C-1.34 0.67 -0.68 0.34 0 0 Z " fill="#C2C2C7" transform="translate(526,242)" data-index="35"></path>
<path d="M0 0 C0.33 0.99 0.66 1.98 1 3 C0.01 3.495 0.01 3.495 -1 4 C-1.0825 4.61875 -1.165 5.2375 -1.25 5.875 C-2 8 -2 8 -4.8125 9.625 C-5.864375 10.07875 -6.91625 10.5325 -8 11 C-9.33664056 11.66001079 -10.67072795 12.32527189 -12 13 C-8.19524578 8.43969176 -4.25030379 4.14910608 0 0 Z " fill="#C4C4CA" transform="translate(575,195)" data-index="36"></path>
<path d="M0 0 C1.58294782 -0.05437607 3.16644256 -0.09296271 4.75 -0.125 C5.63171875 -0.14820312 6.5134375 -0.17140625 7.421875 -0.1953125 C10.1135858 0.00860498 11.69904974 0.63448279 14 2 C14 2.66 14 3.32 14 4 C7.07 3.505 7.07 3.505 0 3 C0 2.01 0 1.02 0 0 Z " fill="#817A6F" transform="translate(583,84)" data-index="37"></path>
<path d="M0 0 C0.66 0.33 1.32 0.66 2 1 C-0.11905463 3.17277714 -2.24472878 5.33826908 -4.375 7.5 C-4.97828125 8.12003906 -5.5815625 8.74007812 -6.203125 9.37890625 C-6.78320312 9.96542969 -7.36328125 10.55195312 -7.9609375 11.15625 C-8.49509277 11.70087891 -9.02924805 12.24550781 -9.57958984 12.80664062 C-11 14 -11 14 -13 14 C-11.87050952 10.61152855 -10.87716782 9.80305816 -8.1875 7.5625 C-5.33240495 5.14310168 -2.5947338 2.7028477 0 0 Z " fill="#5A5449" transform="translate(677,99)" data-index="38"></path>
<path d="M0 0 C0.66 0 1.32 0 2 0 C0.85799436 3.42601693 -0.20308055 4.24521651 -2.9375 6.5 C-5.50975192 8.62876021 -7.12260763 10.18391145 -9 13 C-9.99 12.67 -10.98 12.34 -12 12 C-10.38113585 10.32737283 -8.7547271 8.66204463 -7.125 7 C-6.22007812 6.071875 -5.31515625 5.14375 -4.3828125 4.1875 C-2 2 -2 2 0 2 C0 1.34 0 0.68 0 0 Z " fill="#C2C2C6" transform="translate(542,226)" data-index="39"></path>
<path d="M0 0 C0.66 0.33 1.32 0.66 2 1 C0.35 2.65 -1.3 4.3 -3 6 C-2.01 6.66 -1.02 7.32 0 8 C-3.96 8.66 -7.92 9.32 -12 10 C-12 9.34 -12 8.68 -12 8 C-10.700625 7.690625 -10.700625 7.690625 -9.375 7.375 C-5.07882294 5.62470564 -3.10989527 3.40607577 0 0 Z " fill="#9D9891" transform="translate(619,156)" data-index="40"></path>
<path d="M0 0 C0.33 0 0.66 0 1 0 C1.33 5.61 1.66 11.22 2 17 C0.68 17.33 -0.64 17.66 -2 18 C-1.505 16.515 -1.505 16.515 -1 15 C-0.77281504 12.43365139 -0.58391816 9.88321893 -0.4375 7.3125 C-0.39431641 6.61060547 -0.35113281 5.90871094 -0.30664062 5.18554688 C-0.2008264 3.45724794 -0.09993419 1.7286489 0 0 Z " fill="#BCBDC1" transform="translate(441,236)" data-index="41"></path>
<path d="M0 0 C1 2 1 2 0.375 4.5 C-1 7 -1 7 -3.4375 8.375 C-6 9 -6 9 -9 8 C-8.43410156 7.50628906 -7.86820313 7.01257813 -7.28515625 6.50390625 C-6.55167969 5.86324219 -5.81820312 5.22257813 -5.0625 4.5625 C-4.33160156 3.92441406 -3.60070312 3.28632813 -2.84765625 2.62890625 C-1.87860647 1.77458541 -0.91348825 0.91348825 0 0 Z " fill="#CDD0D6" transform="translate(647,143)" data-index="42"></path>
<path d="M0 0 C2.00720923 0.28674418 4.0085944 0.61866701 6 1 C5.64950425 4.24208567 5.43778819 5.61527704 2.9375 7.8125 C2.298125 8.204375 1.65875 8.59625 1 9 C1.66 7.02 2.32 5.04 3 3 C1.68 2.34 0.36 1.68 -1 1 C-0.67 0.67 -0.34 0.34 0 0 Z " fill="#6F695E" transform="translate(579,131)" data-index="43"></path>
<path d="M0 0 C0.66 0 1.32 0 2 0 C0.68 5.28 -0.64 10.56 -2 16 C-2.33 16 -2.66 16 -3 16 C-2.57910004 10.39538469 -2.08386889 5.27913453 0 0 Z " fill="#BDBEC0" transform="translate(383,338)" data-index="44"></path>
<path d="M0 0 C0.66 1.32 1.32 2.64 2 4 C-2.75 5.125 -2.75 5.125 -5 4 C-5.33 4.66 -5.66 5.32 -6 6 C-6 5.01 -6 4.02 -6 3 C-5.34 3 -4.68 3 -4 3 C-4 2.34 -4 1.68 -4 1 C-2.68 0.67 -1.36 0.34 0 0 Z " fill="#C0BFBB" transform="translate(400,296)" data-index="45"></path>
<path d="M0 0 C1.32 0.33 2.64 0.66 4 1 C4.33 2.98 4.66 4.96 5 7 C1.125 6.125 1.125 6.125 0 5 C-0.04063832 3.33382885 -0.042721 1.66611905 0 0 Z " fill="#78746D" transform="translate(443,248)" data-index="46"></path>
<path d="M0 0 C0.99 0 1.98 0 3 0 C1.88333826 3.34998521 1.25305075 3.79340222 -1.5625 5.6875 C-2.20316406 6.12449219 -2.84382813 6.56148438 -3.50390625 7.01171875 C-3.99761719 7.33785156 -4.49132812 7.66398437 -5 8 C-5.66 7.67 -6.32 7.34 -7 7 C-4.66666667 4.66666667 -2.33333333 2.33333333 0 0 Z " fill="#CACBCF" transform="translate(427,260)" data-index="47"></path>
<path d="M0 0 C2 1 4 2 6 3 C6 3.99 6 4.98 6 6 C4 6 4 6 2.375 4.5 C1.92125 4.005 1.4675 3.51 1 3 C-0.98 3.99 -0.98 3.99 -3 5 C-2.01 3.35 -1.02 1.7 0 0 Z " fill="#6C665B" transform="translate(559,155)" data-index="48"></path>
<path d="M0 0 C0.33 0.99 0.66 1.98 1 3 C-1.31 4.98 -3.62 6.96 -6 9 C-6 6 -6 6 -4.6875 4.39453125 C-4.130625 3.87246094 -3.57375 3.35039063 -3 2.8125 C-2.443125 2.28269531 -1.88625 1.75289063 -1.3125 1.20703125 C-0.6628125 0.60955078 -0.6628125 0.60955078 0 0 Z " fill="#CED0D3" transform="translate(690,102)" data-index="49"></path>
<path d="M0 0 C0.33 0 0.66 0 1 0 C1 1.98 1 3.96 1 6 C2.32 6.33 3.64 6.66 5 7 C2 9 2 9 -1 9 C-0.67 6.03 -0.34 3.06 0 0 Z " fill="#72695F" transform="translate(467,140)" data-index="50"></path>
<path d="M0 0 C0.66 0.99 1.32 1.98 2 3 C1.15955106 6.43183318 0.51471866 8.48528134 -2 11 C-1.125 3.375 -1.125 3.375 0 0 Z " fill="#C7C7C5" transform="translate(458,321)" data-index="51"></path>
<path d="M0 0 C0.33 0.99 0.66 1.98 1 3 C3.97 3 6.94 3 10 3 C10 3.33 10 3.66 10 4 C6.7 4.33 3.4 4.66 0 5 C-0.33 4.01 -0.66 3.02 -1 2 C-0.67 1.34 -0.34 0.68 0 0 Z " fill="#817A6F" transform="translate(490,123)" data-index="52"></path>
<path d="M0 0 C-0.5625 1.9375 -0.5625 1.9375 -2 4 C-5.625 4.75 -5.625 4.75 -9 5 C-2.87096774 0 -2.87096774 0 0 0 Z " fill="#9C978C" transform="translate(611,82)" data-index="53"></path>
<path d="M0 0 C1.0326802 2.78823655 1.04509293 3.8677274 0.0625 6.75 C-0.288125 7.4925 -0.63875 8.235 -1 9 C-1.66 8.67 -2.32 8.34 -3 8 C-2.67 6.02 -2.34 4.04 -2 2 C-1.34 2 -0.68 2 0 2 C0 1.34 0 0.68 0 0 Z " fill="#AEAFB1" transform="translate(367,402)" data-index="54"></path>
<path d="M0 0 C1.45047396 2.90094791 0.45356803 4.55972596 -0.4375 7.625 C-0.72496094 8.62789063 -1.01242187 9.63078125 -1.30859375 10.6640625 C-1.53675781 11.43492187 -1.76492188 12.20578125 -2 13 C-2.33 13 -2.66 13 -3 13 C-3.31563182 7.73946963 -2.66590937 4.55426184 0 0 Z " fill="#B1B0B1" transform="translate(371,387)" data-index="55"></path>
<path d="M0 0 C1.33333333 0.66666667 2.66666667 1.33333333 4 2 C5.99110401 2.38290462 7.99100513 2.72604615 10 3 C10 3.33 10 3.66 10 4 C2.61538462 4.36923077 2.61538462 4.36923077 -0.5 2.5 C-0.995 2.005 -1.49 1.51 -2 1 C-1.34 0.67 -0.68 0.34 0 0 Z " fill="#E8E3D9" transform="translate(490,72)" data-index="56"></path>
<path d="M0 0 C4.02992782 0.55312735 8.02022924 1.1558062 12 2 C12 2.33 12 2.66 12 3 C10.56260487 3.02712066 9.12506137 3.04645067 7.6875 3.0625 C6.48673828 3.07990234 6.48673828 3.07990234 5.26171875 3.09765625 C3 3 3 3 0 2 C0 1.34 0 0.68 0 0 Z " fill="#F7F6EF" transform="translate(433,56)" data-index="57"></path>
<path d="M0 0 C2 2 2 2 2 6 C0.35 6 -1.3 6 -3 6 C-2 4 -1 2 0 0 Z " fill="#CBCBCF" transform="translate(398,394)" data-index="58"></path>
<path d="M0 0 C0.66 0.66 1.32 1.32 2 2 C1.67 2.99 1.34 3.98 1 5 C-0.98 5 -2.96 5 -5 5 C-3.35 3.35 -1.7 1.7 0 0 Z " fill="#CCCED2" transform="translate(678,114)" data-index="59"></path>
<path d="M0 0 C0 0.99 0 1.98 0 3 C-2.31 3 -4.62 3 -7 3 C-7 2.34 -7 1.68 -7 1 C-4.53721199 -0.231394 -2.7204945 -0.07159196 0 0 Z " fill="#736D62" transform="translate(682,96)" data-index="60"></path>
</svg>