<svg width="432" height="184" viewBox="0 0 432 184" fill="none" xmlns="http://www.w3.org/2000/svg">
<rect width="432" height="184" fill="#1E1E1E"/>
<g filter="url(#filter0_d_0_1)">
<rect x="4" width="424" height="176" fill="#0A0A0A"/>
<rect x="4.5" y="0.5" width="423" height="175" stroke="black"/>
</g>
<path d="M66.28 113V63.56H130.312C135.944 63.56 140.072 64.968 142.696 67.784C145.32 70.536 146.632 74.184 146.632 78.728V113H132.712V80.456C132.712 76.552 130.728 74.6 126.76 74.6H113.416V113H99.496V74.6H80.2V113H66.28ZM162.029 113V99.272H177.389V113H162.029ZM206.594 113C201.41 113 197.442 111.688 194.69 109.064C191.938 106.44 190.562 102.696 190.562 97.832C190.562 93.032 191.938 89.32 194.69 86.696C197.442 84.072 201.41 82.76 206.594 82.76H243.459V80.456C243.459 76.552 241.539 74.6 237.699 74.6H196.994V63.56H241.347C247.171 63.56 251.299 64.904 253.731 67.592C256.163 70.216 257.378 73.928 257.378 78.728V113H206.594ZM209.09 101.96H243.459V93.8H209.09C207.874 93.8 206.914 94.184 206.21 94.952C205.57 95.656 205.25 96.616 205.25 97.832C205.25 99.048 205.57 100.04 206.21 100.808C206.914 101.576 207.874 101.96 209.09 101.96ZM273.254 113V99.272H288.614V113H273.254ZM330.011 113.48C321.435 113.48 314.747 111.368 309.947 107.144C305.147 102.856 302.747 96.584 302.747 88.328C302.747 80.008 305.147 73.736 309.947 69.512C314.747 65.224 321.435 63.08 330.011 63.08H362.172V74.12H330.011C325.851 74.12 322.651 75.272 320.411 77.576C318.235 79.88 317.147 83.464 317.147 88.328C317.147 93.128 318.235 96.68 320.411 98.984C322.651 101.288 325.851 102.44 330.011 102.44H363.132V113.48H330.011Z" fill="white"/>
<path d="M98.1 146V135.7H111.44C112.613 135.7 113.473 135.993 114.02 136.58C114.567 137.153 114.84 137.913 114.84 138.86V146H111.94V139.22C111.94 138.407 111.527 138 110.7 138H107.92V146H105.02V138H101V146H98.1ZM118.548 146V135.7H126.428C127.588 135.7 128.441 135.993 128.988 136.58C129.534 137.153 129.808 137.913 129.808 138.86V141H126.868V139.22C126.868 138.42 126.468 138.02 125.668 138.02H121.488V146H118.548ZM144.331 146C143.251 146 142.425 145.727 141.851 145.18C141.278 144.633 140.991 143.853 140.991 142.84C140.991 141.84 141.278 141.067 141.851 140.52C142.425 139.973 143.251 139.7 144.331 139.7H152.011V139.22C152.011 138.407 151.611 138 150.811 138H142.331V135.7H151.571C152.785 135.7 153.645 135.98 154.151 136.54C154.658 137.087 154.911 137.86 154.911 138.86V146H144.331ZM144.851 143.7H152.011V142H144.851C144.598 142 144.398 142.08 144.251 142.24C144.118 142.387 144.051 142.587 144.051 142.84C144.051 143.093 144.118 143.3 144.251 143.46C144.398 143.62 144.598 143.7 144.851 143.7ZM158.719 146V131.7H161.619V146H158.719ZM159.219 146V143.7H166.119C166.985 143.7 167.645 143.467 168.099 143C168.565 142.52 168.799 141.807 168.799 140.86C168.799 139.9 168.565 139.187 168.099 138.72C167.645 138.24 166.985 138 166.119 138H159.419V135.7H166.119C167.905 135.7 169.299 136.14 170.299 137.02C171.299 137.9 171.799 139.18 171.799 140.86C171.799 142.527 171.299 143.8 170.299 144.68C169.299 145.56 167.905 146 166.119 146H159.219ZM175.202 146V131.7H178.102V135.7H184.182C185.355 135.7 186.208 135.993 186.742 136.58C187.288 137.153 187.562 137.913 187.562 138.86V146H184.662V139.2C184.662 138.4 184.262 138 183.462 138H178.102V146H175.202ZM191.255 146V135.7H194.155V146H191.255ZM191.235 134V131.74H194.175V134H191.235ZM211.825 146.1C210.038 146.1 208.645 145.66 207.645 144.78C206.645 143.887 206.145 142.58 206.145 140.86C206.145 139.127 206.645 137.82 207.645 136.94C208.645 136.047 210.038 135.6 211.825 135.6H218.525V137.9H211.825C210.958 137.9 210.291 138.14 209.825 138.62C209.371 139.1 209.145 139.847 209.145 140.86C209.145 141.86 209.371 142.6 209.825 143.08C210.291 143.56 210.958 143.8 211.825 143.8H218.725V146.1H211.825ZM221.816 146V131.7H224.716V135.7H230.796C231.97 135.7 232.823 135.993 233.356 136.58C233.903 137.153 234.176 137.913 234.176 138.86V146H231.276V139.2C231.276 138.4 230.876 138 230.076 138H224.716V146H221.816ZM243.15 146.1C241.363 146.1 239.97 145.66 238.97 144.78C237.97 143.887 237.47 142.58 237.47 140.86C237.47 139.127 237.97 137.82 238.97 136.94C239.97 136.047 241.363 135.6 243.15 135.6H246.85C248.636 135.6 250.03 136.047 251.03 136.94C252.03 137.82 252.53 139.127 252.53 140.86C252.53 142.58 252.03 143.887 251.03 144.78C250.03 145.66 248.636 146.1 246.85 146.1H243.15ZM243.15 143.8H246.85C247.716 143.8 248.376 143.56 248.83 143.08C249.296 142.6 249.53 141.86 249.53 140.86C249.53 139.847 249.296 139.1 248.83 138.62C248.376 138.14 247.716 137.9 246.85 137.9H243.15C242.283 137.9 241.616 138.14 241.15 138.62C240.696 139.1 240.47 139.847 240.47 140.86C240.47 141.86 240.696 142.6 241.15 143.08C241.616 143.56 242.283 143.8 243.15 143.8ZM259.214 146C258.041 146 257.181 145.707 256.634 145.12C256.101 144.533 255.834 143.773 255.834 142.84V135.7H258.734V142.5C258.734 143.3 259.134 143.7 259.934 143.7H264.094C264.894 143.7 265.294 143.3 265.294 142.5V135.7H268.194V142.84C268.194 143.773 267.921 144.533 267.374 145.12C266.841 145.707 265.988 146 264.814 146H259.214ZM284.57 146H281.67V131.7H284.57V146ZM284.07 146H277.17C275.383 146 273.99 145.56 272.99 144.68C271.99 143.8 271.49 142.527 271.49 140.86C271.49 139.18 271.99 137.9 272.99 137.02C273.99 136.14 275.383 135.7 277.17 135.7H283.87V138H277.17C276.303 138 275.637 138.24 275.17 138.72C274.717 139.187 274.49 139.9 274.49 140.86C274.49 141.807 274.717 142.52 275.17 143C275.637 143.467 276.303 143.7 277.17 143.7H284.07V146ZM288.373 146V131.7H291.273V135.7H297.353C298.526 135.7 299.379 135.993 299.913 136.58C300.459 137.153 300.733 137.913 300.733 138.86V146H297.833V139.2C297.833 138.4 297.433 138 296.633 138H291.273V146H288.373ZM307.166 146C306.086 146 305.259 145.727 304.686 145.18C304.112 144.633 303.826 143.853 303.826 142.84C303.826 141.84 304.112 141.067 304.686 140.52C305.259 139.973 306.086 139.7 307.166 139.7H314.846V139.22C314.846 138.407 314.446 138 313.646 138H305.166V135.7H314.406C315.619 135.7 316.479 135.98 316.986 136.54C317.492 137.087 317.746 137.86 317.746 138.86V146H307.166ZM307.686 143.7H314.846V142H307.686C307.432 142 307.232 142.08 307.086 142.24C306.952 142.387 306.886 142.587 306.886 142.84C306.886 143.093 306.952 143.3 307.086 143.46C307.232 143.62 307.432 143.7 307.686 143.7ZM321.553 146V135.7H329.433C330.593 135.7 331.446 135.993 331.993 136.58C332.54 137.153 332.813 137.913 332.813 138.86V141H329.873V139.22C329.873 138.42 329.473 138.02 328.673 138.02H324.493V146H321.553ZM338.325 150.5V148.2H344.365C345.165 148.2 345.565 147.793 345.565 146.98V146H339.385C338.211 146 337.351 145.707 336.805 145.12C336.271 144.533 336.005 143.773 336.005 142.84V135.7H338.905V142.5C338.905 143.3 339.305 143.7 340.105 143.7H345.465V135.7H348.465V147.34C348.465 148.287 348.191 149.047 347.645 149.62C347.098 150.207 346.245 150.5 345.085 150.5H338.325Z" fill="white"/>
<defs>
<filter id="filter0_d_0_1" x="0" y="0" width="432" height="184" filterUnits="userSpaceOnUse" color-interpolation-filters="sRGB">
<feFlood flood-opacity="0" result="BackgroundImageFix"/>
<feColorMatrix in="SourceAlpha" type="matrix" values="0 0 0 0 0 0 0 0 0 0 0 0 0 0 0 0 0 0 127 0" result="hardAlpha"/>
<feOffset dy="4"/>
<feGaussianBlur stdDeviation="2"/>
<feComposite in2="hardAlpha" operator="out"/>
<feColorMatrix type="matrix" values="0 0 0 0 0 0 0 0 0 0 0 0 0 0 0 0 0 0 0.25 0"/>
<feBlend mode="normal" in2="BackgroundImageFix" result="effect1_dropShadow_0_1"/>
<feBlend mode="normal" in="SourceGraphic" in2="effect1_dropShadow_0_1" result="shape"/>
</filter>
</defs>
</svg>
